<svg xmlns="http://www.w3.org/2000/svg"
shape-rendering="geometricPrecision"
width="4000" height="4000" viewBox="0 0 722 722">
  <metadata>null</metadata>

<path d="
M 32.704 561.719
C 36.128 561.575 39.574 561.903 43.005 561.802
C 44.383 561.761 46.493 561.456 47.702 562.189
C 47.8 563.756 44.475 563.566 43.349 564.02
C 42.559 565.694 44.419 569.279 44.931 570.969
C 46.879 577.403 49.958 583.593 51.467 590.141
C 52.135 590.018 52.19 589.152 52.386 588.566
C 53.01 586.695 53.591 584.796 54.17 582.909
C 54.99 580.238 56.059 577.632 56.936 574.978
C 57.245 574.043 57.905 573.046 57.87 572.032
C 57.798 569.948 55.881 566.578 54.812 564.802
C 53.883 563.257 51.619 563.547 50.865 561.936
C 51.649 561.247 53.94 561.716 55.005 561.753
C 58.698 561.881 62.395 561.673 66.084 561.824
C 66.331 564.306 62.762 562.923 61.916 564.493
C 62.314 571.072 66.086 577.97 68.181 584.182
C 68.678 585.655 69.305 587.077 69.75 588.568
C 69.919 589.132 70.025 590.036 70.489 590.411
C 72.923 584.545 74.248 578.043 76.241 571.983
C 76.954 569.813 78.669 566.139 77.914 563.836
C 76.613 563.452 74.342 563.225 74.167 561.767
C 76.849 561.121 80.395 561.616 83.181 561.616
C 84.095 561.616 85.322 561.518 85.954 562.214
C 85.977 563.368 84.291 563.218 83.46 563.472
C 82.601 563.734 82.037 564.335 81.598 565.092
C 79.458 568.784 78.531 573.663 77.228 577.72
C 74.479 585.601 73.02 594.108 69.852 601.818
C 67.902 601.855 67.503 598.938 66.994 597.419
C 65.393 592.635 63.52 587.882 61.722 583.165
C 61.144 581.649 60.656 580.149 60.229 578.594
C 60.104 578.14 60.08 577.453 59.515 577.595
C 59.062 578.447 58.625 579.325 58.241 580.211
C 55.998 585.868 54.447 591.806 52.351 597.52
C 51.826 598.95 51.555 600.585 50.813 601.914
C 49.566 602.062 49.208 600.896 48.861 599.906
C 48.075 597.665 47.323 595.412 46.53 593.17
C 44.028 586.095 41.575 579.005 39.094 571.928
C 38.26 569.55 37.812 565.384 35.777 563.734
C 34.551 563.232 32.593 563.274 32.704 561.719 Z"
opacity="1" fill="rgb(11,26,43)" fill-rule="evenodd" />
<path d="
M 70.197 462.242
C 74.6 461.766 79.172 462.094 83.603 462.037
C 85.571 462.012 88.051 461.454 89.946 461.953
C 90.892 463.625 92.474 465.115 93.637 466.666
C 96.766 470.842 100.173 474.801 103.446 478.862
C 113.516 491.352 123.844 503.639 134.018 516.039
C 134.666 504.75 134.204 493.313 134.235 482.005
C 134.243 478.938 134.317 475.87 134.288 472.803
C 134.271 471.009 134.341 469.028 133.486 467.397
C 131.506 463.618 127.731 463.755 123.995 463.891
C 123.864 463.141 123.995 462.351 124.152 461.614
C 129.93 461.546 135.723 461.647 141.506 461.639
C 144.255 461.635 147.595 460.953 150.241 461.811
C 150.498 462.474 150.69 463.105 150.415 463.787
C 146.179 463.434 141.936 463.907 140.319 468.523
C 139.577 470.642 139.767 473.006 139.767 475.214
C 139.766 478.476 139.753 481.739 139.735 485.001
C 139.668 496.832 139.639 508.668 139.662 520.498
C 139.671 524.831 139.612 529.167 139.66 533.498
C 139.669 534.247 140.157 537.193 139.446 537.464
C 138.866 537.558 138.421 537.528 137.875 537.304
C 136.27 535.929 135.058 533.913 133.718 532.281
C 131.235 529.256 128.695 526.276 126.24 523.228
C 119.306 514.618 111.971 506.329 104.933 497.803
C 101.493 493.635 97.979 489.514 94.605 485.292
C 93.363 483.738 92.147 482.122 90.835 480.627
C 90.33 480.052 89.446 478.583 89.124 479.454
C 88.932 491.962 89.155 504.489 89.148 517
C 89.146 521.135 87.797 528.032 90.587 531.471
C 92.21 533.471 94.319 533.82 96.749 533.881
C 97.672 533.904 98.996 533.649 99.845 533.983
C 99.982 534.521 100.281 535.336 99.937 535.84
C 93.232 535.385 86.238 535.737 79.512 535.903
C 77.849 535.944 76.175 535.992 74.513 535.912
C 74.203 535.898 73.197 536.078 72.963 535.928
C 72.768 535.804 73.052 534.101 73.06 534.025
C 73.87 533.456 75.803 533.867 76.794 533.825
C 79.609 533.709 81.574 532.766 82.939 530.2
C 83.705 528.759 83.637 526.79 83.668 525.206
C 83.724 522.305 83.726 519.404 83.726 516.503
C 83.726 506.17 83.735 495.837 83.759 485.504
C 83.766 482.17 83.77 478.836 83.796 475.502
C 83.806 474.241 84.13 472.508 83.511 471.358
C 80.733 466.199 75.829 464.86 70.511 464.37
C 69.948 463.765 70.097 463.02 70.197 462.242 Z"
opacity="1" fill="rgb(18,38,62)" fill-rule="evenodd" />
<path d="
M 88.848 599.286
C 90.064 599.259 92.374 599.473 93.108 598.203
C 94.175 596.358 93.649 593.038 93.681 591
C 93.746 586.836 93.75 582.67 93.744 578.506
C 93.741 576.371 94.028 573.971 93.579 571.878
C 92.518 570.873 88.649 571.341 89.371 569.719
C 97.161 569.317 105.013 570.086 112.796 569.613
C 112.946 571.913 113.7 574.561 113.652 576.796
C 111.912 577.062 110.668 573.004 110.035 571.765
C 106.272 571.582 102.354 572.004 98.624 571.631
C 98.178 572.584 98.436 573.967 98.443 575.006
C 98.459 577.737 98.171 580.544 98.532 583.257
C 101.714 583.152 105.046 583.071 108.226 583.226
C 108.579 581.874 109.411 580.673 110.369 579.69
C 111.001 579.573 110.809 581.495 110.809 581.984
C 110.812 584.336 111.383 587.567 110.749 589.827
C 109.399 590.352 108.866 586.283 108.474 585.408
C 105.215 584.947 101.688 585.181 98.419 585.382
C 98.404 588.418 98.252 591.454 98.274 594.495
C 98.282 595.599 98.019 597.406 98.505 598.379
C 101.895 598.247 106.798 599.32 109.945 597.908
C 112.238 596.88 113.273 592.839 115.839 592.77
C 115.553 594.743 113.777 598.991 112.41 600.446
C 110.769 600.992 108.234 600.458 106.508 600.414
C 102.359 600.309 98.162 600.322 94.014 600.43
C 92.896 600.458 90.085 600.933 89.116 600.478
C 88.709 600.287 88.852 599.518 88.848 599.286 Z"
opacity="1" fill="rgb(6,22,34)" fill-rule="evenodd" />
<path d="
M 120.861 599.288
C 122.251 599.18 123.714 599.186 125.02 598.621
C 125.611 595.847 125.334 592.831 125.345 590.001
C 125.368 583.933 125.058 577.796 125.23 571.743
C 124.195 571.479 120.401 571.328 121.07 569.688
C 128.263 570.882 136.305 568.072 143.147 571.406
C 146.701 573.138 149.428 578.105 146.638 581.695
C 145.577 583.06 144.001 583.474 142.759 584.518
C 143.455 585.682 146.035 585.963 147.17 586.992
C 150.189 589.732 149.396 595.217 146.397 597.684
C 141.371 601.819 132.983 600.302 127.01 600.379
C 125.494 600.398 122.451 601.029 121.083 600.476
C 120.544 600.259 120.82 599.673 120.861 599.288 Z
M 130.305 571.848
C 130.296 574.722 130.251 577.614 130.194 580.492
C 130.178 581.318 129.916 582.816 130.448 583.43
C 132.885 583.406 136.223 583.81 138.498 582.785
C 142.642 580.92 143.172 575.544 139.333 573.027
C 136.84 571.393 133.152 571.809 130.305 571.848 Z
M 130.3 585.336
C 129.617 589.474 130.225 593.983 130.218 598.16
C 131.128 598.524 132.305 598.319 133.273 598.328
C 135.856 598.353 138.261 598.531 140.468 596.936
C 144.014 594.372 143.449 589.295 140.086 586.876
C 137.324 584.889 133.511 585.32 130.3 585.336 Z"
opacity="1" fill="rgb(8,25,39)" fill-rule="evenodd" />
<path d="
M 165.286 473.207
C 175.335 472.963 185.453 473.282 195.511 473.29
C 201.597 473.294 208.059 472.651 214.102 473.316
C 214.834 477.668 213.438 482.507 214.659 486.787
C 213.967 486.867 213.194 486.749 212.571 486.437
C 211.11 483.67 211.568 480.298 208.856 478.158
C 207.119 476.788 204.245 476.969 202.156 476.905
C 196.458 476.732 190.323 476.425 184.66 477.084
C 183.339 478.334 183.941 481.292 183.938 483.006
C 183.932 487.021 183.874 491.038 184.047 495.047
C 184.128 496.92 183.8 498.932 184.096 500.776
C 188.549 500.438 193.145 500.663 197.619 500.549
C 200.376 500.479 203.136 500.578 205.095 498.308
C 206.829 496.298 206.925 493.782 207.346 491.283
C 208.067 491.232 208.656 491.185 209.119 491.783
C 209.094 497.027 209.135 502.301 209.155 507.555
C 209.161 509.151 209.924 511.829 209.3 513.264
C 208.669 513.325 208.034 513.383 207.409 513.491
C 206.933 512.472 207.186 511.298 206.999 510.21
C 206.743 508.719 206.021 507.358 205.006 506.244
C 203.382 504.46 200.824 504.548 198.585 504.472
C 193.809 504.31 189.031 504.658 184.261 504.582
C 183.274 505.815 184.071 509.426 184.089 510.998
C 184.142 515.498 184.138 519.998 184.143 524.498
C 184.145 526.677 183.789 529.014 185.127 530.883
C 186.638 532.146 190.599 531.586 192.501 531.583
C 198.798 531.574 206.573 532.762 211.555 528.034
C 213.176 526.496 214.473 524.579 215.5 522.608
C 216.084 521.488 216.559 519.672 217.766 519.138
C 218.443 519.247 219.017 519.192 219.383 519.827
C 218.932 522.085 217.773 524.171 216.998 526.338
C 215.911 529.377 215.05 532.534 213.65 535.453
C 212.793 535.904 211.456 535.656 210.502 535.661
C 207.892 535.676 205.281 535.698 202.67 535.673
C 193.705 535.586 184.768 535.48 175.801 535.551
C 173.248 535.572 170.7 535.669 168.148 535.73
C 167.59 535.743 165.874 535.937 165.424 535.512
C 165.092 535.199 165.144 534.589 165.12 534.211
C 165.887 533.52 167.997 533.756 169.036 533.639
C 170.97 533.421 172.456 532.361 173.443 530.683
C 174.276 529.267 174.122 527.391 174.131 525.814
C 174.149 522.877 174.146 519.941 174.133 517.005
C 174.097 508.837 174.064 500.67 174.12 492.502
C 174.147 488.472 174.945 483.598 173.989 479.672
C 173.567 477.938 172.607 476.267 170.915 475.519
C 168.94 474.647 164.789 476.289 165.286 473.207 Z"
opacity="1" fill="rgb(13,34,56)" fill-rule="evenodd" />
<path d="
M 170.446 561.945
C 171.356 561.079 173.738 561.603 174.978 561.606
C 179.153 561.617 183.334 561.666 187.508 561.743
C 193.956 561.862 200.591 562.753 205.368 567.566
C 212.659 574.91 212.088 588.208 204.625 595.24
C 200.529 599.099 194.447 600.767 188.912 600.771
C 184.017 600.774 179.137 600.59 174.248 600.842
C 172.5 600.932 170.369 601.409 170.045 599.501
C 172.209 598.919 174.16 599.822 175.564 597.516
C 176.75 595.568 176.113 591.706 176.128 589.502
C 176.168 583.749 176.131 577.993 176.108 572.24
C 176.1 570.031 176.614 566.45 175.581 564.434
C 174.132 562.905 172.461 562.847 170.475 562.829
C 170.146 562.365 170.228 562.648 170.446 561.945 Z
M 182.383 564.343
C 181.553 571.748 182.233 579.548 182.202 587.002
C 182.188 590.309 181.403 594.844 182.506 597.978
C 184.41 598.896 187.536 598.458 189.574 598.226
C 192.784 597.862 196.118 596.653 198.428 594.301
C 207.219 585.348 203.923 565.412 190.042 564.191
C 187.507 563.968 184.877 563.664 182.383 564.343 Z"
opacity="1" fill="rgb(13,29,46)" fill-rule="evenodd" />
<path d="
M 217.004 272.928
C 247.299 273.886 277.695 272.259 308.007 272.741
C 315.837 272.866 323.675 272.766 331.505 272.739
C 333.591 272.732 335.68 272.748 337.765 272.705
C 338.43 272.691 339.59 272.471 340.148 272.818
C 341.616 277.094 342.898 281.458 344.621 285.641
C 345.034 286.645 347.069 289.336 346.819 290.267
C 344.755 292.851 342.02 294.993 339.65 297.292
C 334.811 301.986 329.913 306.629 325.115 311.364
C 310.489 325.798 296.003 340.36 281.611 355.021
C 276.209 360.523 270.662 365.892 265.193 371.327
C 263.842 372.67 262.537 374.035 261.237 375.425
C 260.839 375.851 260.313 376.647 259.68 376.677
C 259.523 375.445 259.976 373.951 260.136 372.714
C 260.401 370.668 260.487 368.581 260.595 366.522
C 260.968 359.396 260.802 352.375 259.666 345.32
C 256.383 324.928 247.231 305.486 234.039 289.639
C 231.28 286.325 228.157 283.201 224.925 280.35
C 222.163 277.914 219.057 275.766 216.567 273.056
C 216.712 273.014 216.858 272.971 217.004 272.928 Z
M 244.775 275.349
C 245.891 277.096 247.776 278.62 249.097 280.276
C 252.739 284.84 256.198 289.651 259.241 294.636
C 270.105 312.436 276.246 331.842 277.895 352.584
C 280.115 351.358 282.037 348.569 283.841 346.776
C 284.757 345.865 286.022 344.939 286.605 343.772
C 286.92 342.077 286.408 340.034 286.257 338.323
C 285.87 333.954 285.182 329.631 284.108 325.38
C 280.555 311.319 274.438 298.166 265.87 286.453
C 263.147 282.73 260.25 278.128 256.633 275.224
C 252.964 274.754 248.458 275.022 244.775 275.349 Z
M 271.383 275.032
C 271.288 275.113 271.192 275.195 271.096 275.276
C 280.898 286.179 287.02 299.279 292.122 312.875
C 294.578 319.421 296.874 327.231 296.86 334.271
C 297.081 334.548 298.115 333.171 298.249 333.012
C 299.469 331.564 300.827 330.219 301.991 328.727
C 305.819 323.82 305.729 315.403 304.856 309.532
C 303.075 297.549 296.274 285.546 285.926 278.954
C 283.818 277.611 281.291 275.861 278.872 275.166
C 276.699 274.543 273.677 275.187 271.383 275.032 Z
M 305.988 275.649
C 307.536 278.25 310.292 280.353 312.041 282.938
C 317.046 290.337 321.034 300.143 320.74 309.23
C 321.352 309.374 323.018 306.964 323.508 306.525
C 325.759 304.507 328.022 302.446 330.039 300.192
C 330.793 299.35 331.899 298.423 332.318 297.365
C 332.614 295.82 332.018 293.891 331.804 292.335
C 330.99 286.4 327.456 279.153 322.543 275.503
C 317.174 274.827 311.235 276.899 305.988 275.649 Z"
opacity="1" fill="rgb(11,51,87)" fill-rule="evenodd" />
<path d="
M 216.87 599.323
C 218.241 599.243 219.726 599.13 221.01 598.595
C 221.715 597.058 221.384 595.141 221.467 593.495
C 221.714 588.576 221.614 583.617 221.601 578.689
C 221.596 576.617 222.007 573.676 221.192 571.747
C 219.903 571.096 216.964 571.173 217.229 569.665
C 225.026 569.725 232.898 570.059 240.689 569.711
C 240.931 571.669 241.758 574.962 241.394 576.847
C 239.976 576.849 238.577 573.156 237.895 572.042
C 237.022 571.528 235.522 571.753 234.514 571.725
C 231.809 571.65 229.02 571.513 226.328 571.796
C 226.255 574.528 226.246 577.261 226.249 579.993
C 226.249 580.895 225.937 582.678 226.473 583.365
C 229.635 583.288 232.819 583.278 235.984 583.333
C 236.937 582.65 237.293 580.285 238.165 579.299
C 238.862 579.274 238.562 581.168 238.541 581.673
C 238.47 583.415 238.421 585.149 238.441 586.894
C 238.451 587.765 238.773 588.911 238.387 589.714
C 237.065 589.956 236.614 586.477 236.359 585.531
C 235.679 585.12 234.314 585.282 233.503 585.266
C 231.107 585.218 228.679 585.39 226.298 585.308
C 225.655 589.494 226.315 593.963 226.244 598.181
C 226.948 598.868 229.767 598.35 230.82 598.347
C 233.02 598.341 236.735 598.939 238.621 597.55
C 240.362 596.269 241.293 594.136 242.761 592.597
C 244.277 593.122 242.293 596.269 241.881 597.481
C 241.554 598.439 241.186 599.374 240.731 600.278
C 239.215 600.889 236.649 600.405 235.009 600.371
C 230.697 600.282 226.318 600.184 222.011 600.397
C 220.939 600.45 218.038 600.936 217.116 600.484
C 216.764 600.312 216.874 599.485 216.87 599.323 Z"
opacity="1" fill="rgb(8,24,36)" fill-rule="evenodd" />
<path d="
M 277.432 186.776
C 277.408 186.977 277.384 187.178 277.359 187.378
C 276.603 187.907 276.724 188.608 276.693 189.469
C 276.633 191.123 276.359 192.809 276.183 194.457
C 275.501 200.833 274.178 207.154 272.613 213.366
C 268.826 228.396 262.015 243.477 252.779 255.948
C 250.984 258.372 249.063 260.695 247.26 263.111
C 246.189 264.546 245.073 266.39 243.648 267.485
C 240.805 268.169 236.954 267.464 234.008 267.458
C 230.342 267.45 226.675 267.45 223.008 267.47
C 221.29 267.479 219.497 267.903 217.821 267.608
C 219.561 265.613 221.985 264.1 223.963 262.324
C 227.286 259.34 230.335 256.057 233.216 252.647
C 244.448 239.355 251.716 223.44 256.07 206.702
C 258.283 198.192 259.057 189.268 258.908 180.499
C 258.858 177.612 258.833 174.682 258.506 171.81
C 258.378 170.678 257.95 169.25 258.042 168.132
C 258.058 167.939 258.127 167.619 258.32 167.623
C 258.336 167.623 259.164 168.387 259.283 168.491
C 260.534 169.589 261.703 170.801 262.894 171.965
C 266.373 175.366 269.845 178.777 273.295 182.208
C 274.521 183.427 276.905 185.105 277.432 186.776 Z"
opacity="1" fill="rgb(11,52,89)" fill-rule="evenodd" />
<path d="
M 231.223 473.144
C 239.121 473.159 247.02 473.367 254.921 473.281
C 254.992 473.814 255.211 474.644 254.898 475.092
C 252.479 475.16 249.313 475.298 249.139 478.395
C 248.898 482.705 251.257 487.067 252.59 491.053
C 254.644 497.196 257.032 503.229 259.16 509.347
C 260.203 512.346 260.957 516.303 262.613 518.988
C 263.91 516.957 264.455 514.253 265.3 511.996
C 267.259 506.767 269.219 501.543 270.96 496.236
C 271.626 494.205 273.838 490.64 273.281 488.574
C 272.99 487.494 272.326 486.536 271.951 485.483
C 270.929 482.61 269.832 479.089 267.686 476.84
C 266.724 475.832 265.394 475.601 264.081 475.389
C 263.809 475.346 262.504 475.339 262.335 475.074
C 262.051 474.627 262.288 473.756 262.346 473.281
C 268.229 473.303 274.115 473.362 280.001 473.258
C 282.146 473.22 284.406 473.467 286.528 473.179
C 286.656 473.8 286.745 474.333 286.553 474.949
C 283.963 474.902 280.484 474.945 280.22 478.388
C 279.904 482.503 282.729 487.445 284.186 491.197
C 286.491 497.136 288.83 503.076 290.978 509.074
C 292.036 512.029 292.847 516.028 294.523 518.653
C 297.872 510.061 300.692 501.168 303.634 492.422
C 305.025 488.286 307.493 483.422 307.634 479.006
C 307.682 477.496 306.5 475.793 305.069 475.297
C 303.46 474.739 300.772 475.723 301.246 473.269
C 302.878 472.651 305.201 473.176 306.954 473.212
C 311.325 473.301 315.777 473.41 320.142 473.244
C 320.428 473.738 320.342 474.257 320.331 474.813
C 312.85 474.745 311.404 483.562 309.358 489.251
C 305.334 500.445 301.917 511.853 297.98 523.076
C 296.867 526.252 295.843 529.466 294.705 532.638
C 294.238 533.939 294.019 535.554 293.282 536.722
C 292.719 536.882 292.191 536.824 291.616 536.83
C 290.97 536.242 290.793 535.104 290.47 534.294
C 289.608 532.138 288.833 529.947 288.008 527.777
C 285.231 520.475 282.423 513.166 279.561 505.898
C 278.59 503.433 277.945 500.855 277.018 498.386
C 276.87 497.991 276.358 496.38 276.203 496.36
C 275.819 496.31 276.007 497.111 275.896 497.483
C 275.775 497.885 275.653 498.121 275.484 498.509
C 274.461 500.847 273.722 503.286 272.81 505.667
C 270.329 512.139 267.839 518.605 265.521 525.136
C 264.614 527.692 263.554 530.17 262.582 532.699
C 262.103 533.943 261.871 535.452 261.179 536.586
C 260.677 536.963 259.714 536.852 259.379 536.297
C 258.436 534.739 257.933 532.722 257.33 531.014
C 254.869 524.047 252.217 517.117 249.602 510.206
C 247.086 503.555 244.736 496.836 242.304 490.153
C 241.072 486.767 240.106 483.24 238.583 479.97
C 237.939 478.588 237.162 477.048 235.931 476.089
C 234.136 474.69 230.963 476.058 231.223 473.144 Z"
opacity="1" fill="rgb(14,35,58)" fill-rule="evenodd" />
<path d="
M 247.049 569.667
C 251.249 569.571 255.457 569.844 259.659 569.77
C 260.014 571.39 257.502 571.226 256.353 571.942
C 258.406 579.341 262.685 586.373 265.537 593.488
C 266.182 593.449 266.087 592.461 266.191 591.984
C 266.472 590.689 267.091 589.428 267.609 588.214
C 269.164 584.573 270.741 580.95 272.148 577.249
C 272.79 575.56 273.76 573.596 273.772 571.761
C 272.621 571.556 270.107 571.069 270.261 569.809
C 273.497 569.597 277.451 569.293 280.64 569.867
C 281.329 570.929 277.196 572.009 276.652 572.928
C 274.674 576.27 273.501 580.484 272.014 584.079
C 270.157 588.569 268.176 593.009 266.386 597.528
C 266.016 598.462 265.609 601.496 264.302 601.251
C 262.683 598.837 261.701 595.764 260.503 593.114
C 258.602 588.905 256.463 584.778 254.697 580.509
C 253.633 577.936 252.418 573.509 250.318 571.644
C 248.991 570.874 247.618 571.263 247.049 569.667 Z"
opacity="1" fill="rgb(8,25,38)" fill-rule="evenodd" />
<path d="
M 277.359 187.378
C 277.384 187.178 277.408 186.977 277.432 186.776
C 280.847 189.414 283.702 192.764 286.872 195.678
C 289.624 198.21 292.584 200.614 295.016 203.477
C 294.786 203.36 294.522 202.961 294.325 203.127
C 294.092 203.324 294.334 205.123 294.373 205.501
C 294.614 207.858 294.703 210.24 295.311 212.536
C 295.153 212.211 295.15 211.38 294.836 211.56
C 294.308 211.864 294.626 212.762 294.502 213.359
C 294.141 215.093 293.781 216.826 293.42 218.56
C 292.482 223.08 290.999 227.473 289.63 231.872
C 285.664 244.608 278.483 257.659 269.34 267.425
C 267.678 267.963 265.556 267.564 263.837 267.488
C 261.255 267.373 258.637 267.746 256.073 267.555
C 257.1 265.534 259.112 263.855 260.515 262.071
C 263.16 258.706 265.666 255.265 267.965 251.652
C 275.258 240.193 280.178 227.824 283.165 214.607
C 284.143 210.278 284.791 205.869 285.179 201.447
C 285.306 199.998 285.958 197.719 285.364 196.386
C 282.97 193.04 279.368 191.085 277.359 187.378 Z"
opacity="1" fill="rgb(141,139,138)" fill-rule="evenodd" />
<path d="
M 365.382 183.746
C 365.313 184.415 364.98 184.855 364.511 185.319
C 357.479 196.165 346.47 204.855 333.706 207.649
C 328.718 208.74 323.57 208.812 318.505 208.467
C 314.361 208.186 309.812 208.15 305.916 206.556
C 304.33 205.574 302.93 203.747 301.589 202.44
C 299.11 200.023 296.536 197.705 294.086 195.257
C 287.363 188.536 280.368 182.083 273.598 175.408
C 270.659 172.511 267.662 169.666 264.77 166.723
C 263.315 165.243 261.42 163.892 260.504 162.021
C 271.107 165.454 283.9 164.599 294.737 162.82
C 322.676 158.233 348.123 143.138 365.58 120.9
C 366.176 126.651 365.709 132.707 365.706 138.501
C 365.705 140.869 366.392 144.462 365.637 146.686
C 360.709 150.55 356.31 154.927 351.134 158.527
C 340.42 165.978 328.33 172.035 315.802 175.738
C 308.721 177.831 301.488 179.601 294.137 180.422
C 291.988 180.662 289.842 180.716 287.693 180.9
C 286.853 180.972 285.845 180.866 285.271 181.5
C 287.312 183.574 289.412 185.595 291.456 187.669
C 292.213 188.437 293.146 189.834 294.197 190.172
C 295.691 190.654 298.143 189.942 299.677 189.726
C 303.925 189.128 308.187 188.662 312.38 187.721
C 325.2 184.844 337.697 179.824 348.681 172.577
C 352.382 170.135 356.028 167.517 359.477 164.728
C 361.54 163.06 363.454 160.913 365.672 159.477
C 365.672 162.216 365.584 164.965 365.671 167.708
C 365.723 169.394 366.094 171.324 365.702 172.975
C 364.211 175.621 360.194 177.659 357.83 179.501
C 348.563 186.719 336.967 192.642 325.614 195.764
C 320.98 197.038 316.301 197.99 311.642 199.12
C 310.545 199.386 307.583 199.504 307.113 200.515
C 323.246 204.836 341.307 200.697 354.581 190.847
C 358.842 187.685 362 183.711 365.626 179.91
C 365.659 181.226 365.444 182.445 365.382 183.746 Z"
opacity="1" fill="rgb(11,53,90)" fill-rule="evenodd" />
<path d="
M 264.372 379.125
C 268.052 376.917 271.13 372.779 274.158 369.75
C 279.386 364.52 284.965 359.611 290.028 354.258
C 292.704 351.43 295.464 348.699 298.21 345.936
C 299.763 344.374 301.22 342.52 303.041 341.268
C 304.793 340.921 306.852 341.358 308.607 341.585
C 312.442 342.083 316.222 342.672 319.957 343.698
C 334.176 347.606 346.941 354.051 358.865 362.662
C 360.441 363.8 361.863 365.084 363.369 366.307
C 364 366.819 365.017 367.413 365.371 368.178
C 365.65 368.78 365.423 369.849 365.421 370.499
C 365.413 372.664 365.477 374.83 365.465 376.996
C 365.457 378.394 365.278 379.859 365.559 381.236
C 365.588 381.38 365.8 382.269 365.601 382.324
C 362.13 377.819 356.834 374.203 352.22 370.976
C 340.903 363.059 328.327 357.254 314.94 353.864
C 310.554 352.753 305.978 351.982 301.468 351.607
C 299.59 351.451 297.464 350.972 295.602 351.451
C 293.089 352.097 291.361 354.868 289.614 356.603
C 288.575 357.634 287.316 358.386 286.356 359.484
C 286.479 359.957 287.171 359.852 287.569 359.883
C 289.078 360 290.578 360.204 292.088 360.321
C 298.221 360.798 304.416 362.042 310.347 363.66
C 326.562 368.086 342.766 375.519 355.771 386.307
C 358.004 388.16 360.163 390.077 362.346 391.986
C 363.374 392.885 364.739 393.582 365.581 394.654
C 365.958 401.227 365.736 407.91 365.672 414.494
C 365.655 416.177 365.641 417.873 365.691 419.553
C 365.698 419.799 365.879 420.726 365.627 420.916
C 348.826 396.227 319.219 380.424 289.766 377.662
C 284.147 377.135 278.348 377.247 272.745 377.922
C 269.969 378.257 266.93 379.512 264.189 379.466
C 264.25 379.353 264.311 379.239 264.372 379.125 Z"
opacity="1" fill="rgb(139,138,136)" fill-rule="evenodd" />
<path d="
M 295.311 212.536
C 294.703 210.24 294.614 207.858 294.373 205.501
C 294.334 205.123 294.092 203.324 294.325 203.127
C 294.522 202.961 294.786 203.36 295.016 203.477
C 297.587 205.539 299.578 208.242 302.077 210.403
C 302.514 211.37 302.546 212.767 302.782 213.834
C 303.309 216.225 303.88 218.535 304.169 220.976
C 305.648 233.495 302.937 245.521 295.247 255.7
C 293.161 258.462 290.797 261.2 288.027 263.294
C 286.544 264.415 283.767 265.691 282.907 267.352
C 281.878 267.558 281.066 267.771 280.01 267.595
C 281.044 266.302 282.517 265.315 283.735 264.192
C 285.83 262.261 287.642 259.986 289.229 257.628
C 298.1 244.442 300.207 227.541 295.311 212.536 Z"
opacity="1" fill="rgb(9,46,79)" fill-rule="evenodd" />
<path d="
M 302.077 210.403
C 305.521 212.938 308.477 216.721 311.589 219.685
C 319.577 227.296 327.366 235.127 335.199 242.9
C 337.944 245.625 340.824 248.209 343.557 250.946
C 344.216 251.606 346.204 252.971 346.336 253.878
C 344.973 257.15 343.209 260.233 341.913 263.549
C 341.564 264.442 341.248 266.789 340.498 267.336
C 333.903 268.153 326.786 267.437 320.147 267.414
C 307.739 267.371 295.311 267.635 282.907 267.352
C 283.767 265.691 286.544 264.415 288.027 263.294
C 290.797 261.2 293.161 258.462 295.247 255.7
C 302.937 245.521 305.648 233.495 304.169 220.976
C 303.88 218.535 303.309 216.225 302.782 213.834
C 302.546 212.767 302.514 211.37 302.077 210.403 Z
M 306.815 266.163
C 308.507 266.538 310.774 265.952 312.538 265.903
C 316.248 265.801 320.218 266.322 323.885 265.805
C 325.436 264.954 326.505 262.938 327.453 261.51
C 330.058 257.585 331.976 253.304 332.722 248.625
C 332.924 247.355 333.449 245.468 333.061 244.212
C 332.611 242.759 330.659 241.393 329.602 240.357
C 326.669 237.482 323.901 234.061 320.644 231.623
C 321.338 243.779 315.066 257.504 306.815 266.163 Z"
opacity="1" fill="rgb(142,141,138)" fill-rule="evenodd" />
<path d="
M 284.814 599.295
C 286.132 599.212 287.767 599.233 288.949 598.568
C 289.834 596.297 289.288 592.919 289.289 590.508
C 289.291 586.507 289.328 582.506 289.347 578.504
C 289.357 576.366 289.653 573.934 289.113 571.847
C 287.858 570.942 284.816 571.444 285.256 569.635
C 293.069 569.75 300.983 570.079 308.788 569.655
C 308.867 571.911 309.65 574.63 309.339 576.832
C 307.782 576.914 306.612 573.176 305.975 571.998
C 302.157 571.381 298.137 571.914 294.288 571.775
C 293.827 574.565 294.196 577.608 294.114 580.436
C 294.088 581.347 293.734 582.811 294.414 583.441
C 297.642 583.337 301.124 582.982 304.334 583.314
C 304.739 581.737 305.099 579.733 306.688 579.028
C 307.019 581.423 306.635 583.863 306.749 586.273
C 306.81 587.539 307.177 589.402 306.653 590.593
C 305.984 590.946 305.781 590.137 305.618 589.611
C 305.216 588.31 305.2 586.617 304.457 585.464
C 301.35 584.849 297.591 585.25 294.433 585.387
C 293.819 586.496 294.114 588.232 294.132 589.495
C 294.175 592.382 294.196 595.27 294.287 598.15
C 295.152 598.544 296.548 598.287 297.498 598.285
C 300.018 598.279 304.427 598.988 306.633 597.544
C 308.186 596.528 309.033 594.609 310.198 593.227
C 310.516 592.849 311.334 592.008 311.831 592.541
C 311.674 594.345 310.25 596.489 309.557 598.197
C 309.336 598.742 309.044 600.038 308.573 600.376
C 302.439 600.942 296.164 600.093 290.012 600.419
C 288.471 600.501 284.719 601.195 284.814 599.295 Z"
opacity="1" fill="rgb(8,25,37)" fill-rule="evenodd" />
<path d="
M 305.396 337.819
C 306.768 336.481 308.444 335.483 309.812 334.096
C 318.193 325.603 326.586 317.115 335.156 308.809
C 340.362 303.765 345.884 298.823 350.689 293.391
C 352.33 293.561 354.322 295.049 355.839 295.749
C 358.836 297.133 362.981 297.853 365.639 299.739
C 365.481 315.652 365.757 331.578 365.703 347.495
C 365.688 351.737 365.37 356.016 365.599 360.248
C 365.671 361.58 366.471 364.355 365.856 365.489
C 365.01 364.855 364.422 362.591 363.96 361.593
C 362.749 358.977 361.214 356.449 359.56 354.092
C 354.06 346.256 345.795 339.544 336.794 336.205
C 329.995 333.683 322.263 332.626 315.13 334.246
C 312.611 334.818 310.236 335.564 307.98 336.824
C 307.509 337.087 305.919 338.218 305.396 337.819 Z
M 327.928 318.095
C 327.831 318.217 327.735 318.338 327.638 318.46
C 328.217 319.076 330.478 318.363 331.389 318.485
C 334.953 318.96 338.449 319.177 341.932 320.184
C 347.804 321.881 353.334 324.693 358.158 328.445
C 360.111 329.964 361.597 332.097 363.573 333.537
C 363.95 333.284 363.692 332.351 363.67 331.967
C 363.567 330.147 363.567 328.31 363.59 326.486
C 363.619 324.153 363.628 321.821 363.633 319.487
C 363.635 318.621 363.94 317.496 363.538 316.683
C 363.026 315.645 361.744 314.687 360.877 313.96
C 358.274 311.777 355.504 309.93 352.308 308.727
C 349.454 307.652 346.367 307.042 343.326 306.853
C 342.311 306.79 341.058 306.591 340.095 307.002
C 338.672 307.61 337.56 309.087 336.47 310.142
C 333.804 312.725 331.029 316.086 327.928 318.095 Z"
opacity="1" fill="rgb(140,138,136)" fill-rule="evenodd" />
<path d="
M 305.916 206.556
C 309.812 208.15 314.361 208.186 318.505 208.467
C 323.57 208.812 328.718 208.74 333.706 207.649
C 346.47 204.855 357.479 196.165 364.511 185.319
C 364.98 184.855 365.313 184.415 365.382 183.746
C 366.338 187.432 365.644 192.173 365.668 195.994
C 365.727 205.337 365.399 214.654 365.399 223.995
C 365.399 228.629 365.492 233.263 365.458 237.891
C 365.444 239.787 365.812 241.955 365.296 243.797
C 362.617 245.352 359.336 245.902 356.531 247.256
C 354.617 248.179 352.193 250.102 350.101 250.38
C 345.419 246.602 341.068 241.827 336.841 237.536
C 330.294 230.889 323.542 224.435 316.947 217.846
C 314.2 215.101 311.113 212.677 308.474 209.829
C 307.73 209.026 305.974 207.705 305.916 206.556 Z
M 327.12 224.394
C 329.784 226.967 332.411 229.572 335.003 232.219
C 336.328 233.573 337.869 235.555 339.662 236.297
C 341.328 236.985 343.888 236.413 345.599 236.137
C 350.764 235.306 355.262 233.531 359.513 230.472
C 360.833 229.522 363.456 228.068 363.9 226.406
C 364.662 221.016 364.29 214.984 364.129 209.563
C 362.566 209.936 360.828 212.217 359.58 213.287
C 357.118 215.399 354.408 217.1 351.588 218.685
C 343.893 223.008 335.701 223.719 327.12 224.394 Z"
opacity="1" fill="rgb(140,139,138)" fill-rule="evenodd" />
<path d="
M 316.273 569.813
C 319.757 569.157 323.94 569.738 327.497 569.767
C 328.723 569.777 330.737 569.29 330.762 570.868
C 329.092 570.878 327.477 570.966 326.12 572.055
C 325.053 574.255 325.549 577.831 325.555 580.234
C 325.568 586.202 325.389 592.227 325.736 598.182
C 328.412 598.671 331.592 598.332 334.31 598.215
C 335.556 598.161 337.083 598.18 338.229 597.609
C 339.614 596.919 340.685 595.019 341.49 593.762
C 341.923 593.086 342.23 592.258 343.132 592.329
C 343.434 593.233 342.733 594.146 342.389 594.944
C 341.575 596.833 341.21 598.735 340.582 600.663
C 339.017 600.899 337.101 600.513 335.5 600.496
C 330.907 600.45 326.219 600.226 321.633 600.482
C 320.178 600.563 316.064 601.573 316.293 599.33
C 317.574 599.264 319.329 599.28 320.472 598.662
C 321.082 596.428 320.768 593.809 320.772 591.508
C 320.78 587.091 320.845 582.675 320.856 578.258
C 320.859 576.702 321.505 572.786 320.31 571.66
C 319.113 571.128 316.339 571.262 316.273 569.813 Z"
opacity="0.996" fill="rgb(7,26,38)" fill-rule="evenodd" />
<path d="
M 332.453 474.673
C 332.606 474.067 332.707 473.588 333.057 473.063
C 337.529 472.986 342.028 473.25 346.507 473.238
C 347.636 473.235 350.671 472.718 351.425 473.473
C 352.787 477.289 354.766 480.88 356.423 484.571
C 361.865 496.698 368.421 508.485 373.256 520.864
C 373.836 520.705 374.489 518.386 374.759 517.791
C 376.164 514.696 377.676 511.653 379.032 508.533
C 382.416 500.746 386.025 493.051 389.458 485.284
C 391.144 481.468 392.317 476.198 395.024 473.011
C 400.983 472.775 407.014 473.319 412.981 473.235
C 413.026 473.504 413.424 474.737 413.121 474.939
C 409.989 474.718 405.726 475.312 404.757 478.993
C 403.736 482.872 404.347 487.521 404.33 491.5
C 404.294 499.832 404.313 508.165 404.299 516.498
C 404.291 520.81 403.118 527.144 405.312 531.031
C 407.036 534.085 410.454 533.699 413.454 533.872
C 413.515 534.324 413.712 535.17 413.652 535.614
C 413.619 535.857 412.204 535.712 412.008 535.716
C 410.341 535.745 408.671 535.648 407.004 535.657
C 400.02 535.696 393.03 535.649 386.053 535.843
C 385.796 535.281 385.987 534.567 386.068 533.97
C 387.15 533.133 390.32 533.551 391.787 533.24
C 394.911 531.016 394.576 527.185 394.66 523.804
C 394.858 515.875 394.763 507.936 394.764 500.005
C 394.764 496.442 394.761 492.88 394.788 489.318
C 394.798 487.999 394.899 486.706 394.988 485.396
C 394.992 485.339 394.973 484.065 394.705 484.201
C 394.532 484.288 394.556 484.557 394.481 484.735
C 392.389 488.56 390.844 492.747 389.055 496.726
C 385.046 505.641 381.158 514.627 377.081 523.511
C 375.655 526.617 374.08 529.646 372.607 532.73
C 371.887 534.237 371.636 535.766 369.873 536.144
C 368.952 535.268 368.594 533.411 368.049 532.255
C 366.65 529.283 365.412 526.22 363.93 523.289
C 358.629 512.806 354.174 501.851 349.255 491.187
C 348.302 489.121 347.847 486.872 346.83 484.826
C 346.19 488.157 346.758 492.082 346.765 495.49
C 346.779 502.991 346.833 510.495 346.793 517.996
C 346.773 521.697 345.648 527.554 347.54 530.885
C 349.398 534.157 352.384 533.3 355.506 533.861
C 355.706 534.474 355.754 535.136 355.818 535.78
C 350.274 535.226 344.227 535.54 338.652 535.721
C 337.63 535.754 334.144 536.306 333.363 535.504
C 333.041 535.175 333.236 534.152 333.268 533.787
C 335.829 533.368 339.58 534.019 341.027 531.219
C 342.781 527.824 342.072 522.605 342.104 518.887
C 342.183 509.926 342.131 500.964 342.151 492.002
C 342.157 489.068 342.154 486.132 342.142 483.198
C 342.136 481.744 342.275 480.112 341.603 478.768
C 339.746 475.05 335.977 475.268 332.415 475.008
C 332.428 474.897 332.441 474.785 332.453 474.673 Z"
opacity="1" fill="rgb(14,37,60)" fill-rule="evenodd" />
<path d="
M 348.002 585.12
C 348.094 580.385 350.169 575.37 353.972 572.424
C 361.661 566.466 373.335 568.964 377.504 577.857
C 378.523 580.03 379.051 582.639 379.094 585.039
C 379.341 598.702 362.172 606.851 352.348 596.694
C 350.981 595.281 349.948 593.566 349.216 591.748
C 348.383 589.679 347.959 587.352 348.002 585.12 Z
M 353.963 582.61
C 353.534 587.257 354.231 593.534 357.692 597.01
C 361.053 600.385 366.923 600.307 370.03 596.569
C 372.093 594.086 372.831 590.709 373.117 587.574
C 373.566 582.643 372.57 575.992 368.482 572.674
C 367.612 571.968 366.592 571.354 365.496 571.092
C 358.449 569.405 354.513 576.653 353.963 582.61 Z"
opacity="1" fill="rgb(10,27,43)" fill-rule="evenodd" />
<path d="
M 370.945 121.574
C 370.97 121.164 370.608 120.338 371.019 120.343
C 371.089 120.344 372.773 122.669 373.042 123.024
C 374.982 125.583 377.214 127.926 379.434 130.242
C 385.382 136.45 391.903 141.797 399.112 146.469
C 415.834 157.306 436.044 163.836 456.012 164.124
C 462.234 164.214 469.78 164.374 475.702 162.267
C 476.097 162.685 475.144 163.409 474.873 163.641
C 473.557 164.77 472.274 165.956 471.049 167.183
C 465.767 172.469 460.504 177.819 455.055 182.93
C 448.609 188.977 442.633 195.507 436.322 201.691
C 425.04 212.747 413.676 223.718 402.377 234.75
C 397.08 239.921 392.058 245.619 386.457 250.451
C 384.789 250.202 383.053 248.754 381.51 248.058
C 378.266 246.596 373.785 245.6 370.998 243.414
C 370.268 238.839 370.848 233.637 370.88 229.001
C 370.938 220.5 370.841 211.999 370.862 203.499
C 370.873 198.989 371.063 194.481 371.061 189.97
C 371.061 188.37 370.975 186.714 371.122 185.122
C 371.152 184.795 371.108 183.709 371.352 183.49
C 371.591 183.274 371.735 184.011 371.885 184.295
C 380.378 198.947 397.139 209.254 414.25 208.828
C 417.839 208.739 422.385 208.591 425.607 206.864
C 427.403 205.901 428.768 204.342 430.196 202.921
C 431.038 202.083 432.629 201.029 433.018 199.935
C 427.621 200.048 422.196 198.836 416.987 197.524
C 404.66 194.416 392.671 189.268 382.168 182.063
C 378.252 179.377 374.782 176.234 370.986 173.44
C 370.526 172.108 370.902 170.395 370.92 168.994
C 370.961 165.758 370.862 162.514 370.925 159.291
C 371.576 159.173 371.904 159.704 372.349 160.15
C 373.488 161.291 374.677 162.357 375.871 163.44
C 380.416 167.562 385.605 171.07 390.775 174.35
C 402.079 181.522 415.35 186.452 428.534 188.686
C 433.094 189.459 438.167 190.559 442.806 190.208
C 444.819 188.446 446.384 186.156 448.366 184.329
C 448.831 183.901 451.929 181.508 451.504 181.248
C 449.867 181.017 448.185 181.277 446.535 181.133
C 442.246 180.76 437.94 180.118 433.733 179.205
C 410.467 174.154 388.123 163.146 370.993 146.414
C 370.196 144.093 370.83 140.465 370.851 137.999
C 370.897 132.621 370.297 126.908 370.945 121.574 Z
M 372.909 209.238
C 372.113 213.013 372.809 217.622 372.835 221.491
C 372.845 223.041 372.527 225.126 373.174 226.573
C 373.969 228.35 376.304 229.615 377.822 230.7
C 382.25 233.863 387.061 235.861 392.532 236.242
C 393.771 236.328 395.586 236.6 396.769 236.128
C 397.823 235.708 398.761 234.427 399.546 233.642
C 401.314 231.878 403.022 230.048 404.832 228.327
C 405.744 227.459 406.655 226.59 407.56 225.716
C 407.863 225.423 408.604 224.94 408.551 224.501
C 398.789 224.301 389.32 221.797 381.162 216.182
C 378.137 214.099 375.729 211.541 372.909 209.238 Z"
opacity="1" fill="rgb(11,52,89)" fill-rule="evenodd" />
<path d="
M 370.988 333.615
C 371.463 330.697 371.091 327.461 371.125 324.503
C 371.221 316.113 370.674 307.673 371.14 299.292
C 373.806 298.289 376.597 297.652 379.212 296.498
C 381.386 295.538 383.417 294.178 385.667 293.414
C 387.188 294.133 388.583 295.908 389.772 297.078
C 392.585 299.845 395.299 302.722 398.151 305.446
C 405.738 312.69 413.066 320.201 420.588 327.513
C 422.905 329.765 425.159 332.085 427.478 334.332
C 428.319 335.147 429.884 335.823 430.505 336.767
C 429.218 336.551 427.938 335.747 426.691 335.328
C 424.449 334.575 422.01 334.097 419.665 333.804
C 408.082 332.358 395.837 335.207 386.495 342.399
C 381.837 345.985 376.988 350.274 373.887 355.335
C 372.88 356.98 371.949 358.844 371.673 360.775
C 371.611 361.213 371.205 364.756 371.041 363.341
C 370.586 359.503 370.93 355.371 370.853 351.495
C 370.737 345.628 370.314 339.452 370.988 333.615 Z
M 372.876 316.536
C 372.414 321.818 372.711 327.45 372.898 332.748
C 373.063 332.988 375.863 329.922 376.356 329.498
C 378.938 327.279 381.917 325.264 384.942 323.699
C 389.662 321.257 395.2 319.396 400.479 318.78
C 402.354 318.562 404.305 318.304 406.194 318.333
C 407.173 318.348 408.167 318.666 409.112 318.424
C 408.686 317.267 406.445 315.982 405.53 315.135
C 402.622 312.442 400.056 309.31 397.049 306.749
C 395.566 306.524 393.882 306.857 392.392 307.009
C 387.034 307.554 382.829 308.861 378.297 311.841
C 376.547 312.992 374.223 314.389 372.99 316.091
C 372.952 316.239 372.914 316.388 372.876 316.536 Z"
opacity="1" fill="rgb(142,140,138)" fill-rule="evenodd" />
<path d="
M 370.864 369.076
C 370.879 368.917 370.894 368.758 370.91 368.599
C 371.574 367.463 373.051 366.664 374.05 365.816
C 377.195 363.145 380.639 360.746 384.098 358.503
C 394.862 351.518 406.807 346.248 419.305 343.3
C 423.889 342.219 429.196 340.813 433.933 341.014
C 437.385 344.655 440.915 348.495 444.856 351.596
C 444.859 351.6 443.542 351.417 443.31 351.375
C 442.428 351.214 441.549 351.241 440.658 351.252
C 437.948 351.286 435.198 351.567 432.511 351.919
C 423.974 353.036 415.758 355.368 407.753 358.503
C 398.501 362.127 389.918 367.095 381.953 373.008
C 379.415 374.893 376.772 376.795 374.448 378.943
C 373.872 379.476 371.064 382.614 370.831 382.129
C 371.071 377.79 370.548 373.422 370.864 369.076 Z"
opacity="1" fill="rgb(140,139,137)" fill-rule="evenodd" />
<path d="
M 370.898 394.502
C 375.378 389.768 381.223 385.829 386.555 382.128
C 399.943 372.835 415.012 366.154 430.892 362.5
C 436.216 361.276 441.695 360.448 447.153 360.167
C 448.978 360.074 451.256 359.554 453.033 359.878
C 457.525 363.678 461.436 368.249 465.722 372.287
C 467.217 373.695 468.606 375.215 470.122 376.602
C 470.57 377.012 471.047 377.398 471.518 377.781
C 471.529 377.791 472.647 378.662 472.517 378.704
C 471.092 379.162 468.178 377.807 466.625 377.622
C 462.128 377.085 457.473 376.9 452.948 377.083
C 439.14 377.64 425.603 380.987 413.01 386.657
C 401.792 391.709 391.204 398.785 382.445 407.441
C 379.454 410.396 376.676 413.606 373.956 416.811
C 373.138 417.775 372.074 420.091 370.911 420.472
C 370.512 414.692 370.729 408.797 370.725 403.001
C 370.723 400.436 370.12 396.935 370.898 394.502 Z"
opacity="1" fill="rgb(140,140,138)" fill-rule="evenodd" />
<path d="
M 384.314 569.817
C 386.993 569.537 389.848 569.744 392.545 569.799
C 396.874 569.888 401.524 569.44 405.3 571.965
C 409.803 574.976 410.259 581.959 405.301 584.933
C 401.399 587.274 398.061 586.376 393.902 586.435
C 393.203 588.989 393.705 592.356 393.741 594.999
C 393.759 596.251 393.619 597.746 394.254 598.858
C 395.01 599.188 398.657 599.525 397.874 600.772
C 394.312 600.887 390.705 600.698 387.135 600.755
C 386.078 600.773 384.169 600.962 384.633 599.388
C 385.856 599.393 387.111 599.265 388.292 598.924
C 389.327 596.267 388.775 592.572 388.761 589.773
C 388.73 584.018 389.562 577.569 388.636 571.899
C 387.646 571.064 383.933 571.356 384.314 569.817 Z
M 393.857 571.857
C 393.908 574.89 393.776 577.951 393.776 580.992
C 393.776 582.236 393.511 583.798 393.897 584.979
C 396.01 584.985 398.933 584.998 400.699 583.652
C 404.556 580.709 402.861 574.385 399.013 572.419
C 397.406 571.598 395.581 571.839 393.857 571.857 Z"
opacity="1" fill="rgb(9,26,41)" fill-rule="evenodd" />
<path d="
M 389.86 289.61
C 391.201 286.996 392.524 284.458 393.486 281.669
C 394.474 278.803 395.164 275.687 396.505 272.97
C 407.739 271.855 419.249 272.94 430.515 272.803
C 442.359 272.659 454.191 273.024 466.014 273.02
C 472.66 273.017 479.315 272.761 485.992 272.947
C 493.988 273.169 502.008 272.797 510.009 272.781
C 512.171 272.777 514.342 272.805 516.503 272.74
C 517.626 272.706 518.974 272.485 520.035 272.865
C 519.58 273.927 518.525 274.454 517.63 275.126
C 515.84 276.471 514.128 277.966 512.466 279.463
C 507.036 284.353 501.994 289.731 497.671 295.632
C 481.625 317.539 473.275 345.341 476.846 372.462
C 477.032 373.871 477.597 375.147 477.832 376.515
C 477.231 376.459 476.646 375.719 476.217 375.345
C 474.672 374.002 473.284 372.478 471.834 371.034
C 466.239 365.461 460.56 359.979 454.903 354.47
C 433.048 333.184 412.05 310.963 389.857 290.01
C 389.858 289.876 389.859 289.743 389.86 289.61 Z
M 404.46 292.598
C 404.26 293.899 403.978 295.537 404.332 296.828
C 405.153 299.823 408.869 302.381 410.948 304.52
C 412.646 306.268 414.181 308.281 416.055 309.84
C 416.39 309.713 416.225 306.616 416.244 306.164
C 416.387 302.727 417.115 299.243 418.121 295.958
C 419.789 290.516 422.675 284.957 426.116 280.438
C 427.508 278.61 429.802 276.846 430.909 274.918
C 429.08 274.3 426.447 274.767 424.508 274.726
C 422.343 274.679 420.177 274.697 418.012 274.664
C 416.886 274.647 415.51 274.405 414.43 274.772
C 412.941 275.277 411.686 277.289 410.743 278.461
C 407.221 282.838 405.774 287.245 404.46 292.598 Z
M 432.002 312.63
C 431.556 320.495 433.435 328.902 439.888 333.938
C 440.147 333.643 439.891 332.447 439.911 332.038
C 439.981 330.567 440.255 328.992 440.525 327.544
C 441.561 321.999 443.071 316.488 445.004 311.189
C 448.289 302.186 452.543 293.462 457.788 285.436
C 459.482 282.844 461.314 280.299 463.235 277.871
C 464.21 276.639 465.758 275.448 466.459 274.056
C 465.359 273.412 463.503 273.649 462.251 273.643
C 460.734 273.636 458.956 273.423 457.482 273.857
C 455.358 274.483 452.977 276.579 451.184 277.871
C 442.614 284.039 436.264 292.851 433.436 303.047
C 432.548 306.249 432.558 309.403 432.002 312.63 Z
M 449.995 343.143
C 449.982 343.736 449.954 343.45 450.069 344
C 453.013 346.991 456.179 349.762 459.083 352.803
C 459.13 352.81 458.919 350.353 458.941 350.029
C 459.097 347.712 459.339 345.395 459.659 343.095
C 460.548 336.713 462.081 330.461 463.943 324.303
C 469.474 306.011 479.821 288.19 493.055 274.386
C 492.733 273.492 491.035 273.762 490.268 273.782
C 487.351 273.858 484.277 274.034 481.377 273.73
C 479.974 274.58 478.822 276.459 477.716 277.68
C 474.736 280.972 472.12 284.53 469.531 288.13
C 461.395 299.44 455.829 312.621 452.476 326.092
C 451.081 331.697 450.74 337.445 449.995 343.143 Z"
opacity="1" fill="rgb(10,51,87)" fill-rule="evenodd" />
<path d="
M 434.381 210.85
C 434.867 211.954 433.294 214.917 432.985 216.083
C 431.966 219.922 431.699 224.173 431.795 228.131
C 432.176 243.921 441.389 260.034 455.5 267.205
C 450.223 267.596 444.801 267.354 439.507 267.354
C 425.062 267.354 410.438 266.798 396.008 267.502
C 394.49 264.341 393.59 260.779 392.184 257.539
C 391.707 256.44 390.237 254.627 390.326 253.519
C 395.976 249.176 400.998 243.567 406.012 238.516
C 415.3 229.16 424.828 219.934 434.381 210.85 Z
M 403.501 244.62
C 403.483 252.573 407.622 260.038 412.419 266.103
C 415.892 266.441 419.514 266.086 423.004 266.125
C 425.264 266.15 427.73 266.631 429.963 266.392
C 428.669 263.824 426.015 261.548 424.463 259.027
C 419.489 250.948 415.596 241.301 415.62 231.674
C 411.937 235.819 407.069 239.198 403.777 243.682
C 403.494 244.31 403.577 243.994 403.501 244.62 Z"
opacity="1" fill="rgb(11,51,87)" fill-rule="evenodd" />
<path d="
M 414.251 569.747
C 416.343 569.58 418.485 569.767 420.584 569.78
C 421.652 569.786 422.964 569.564 423.98 569.845
C 424.442 571.964 425.81 574.222 426.763 576.188
C 428.515 579.805 430.294 583.435 431.949 587.097
C 432.656 588.662 433.433 590.193 434.155 591.75
C 434.367 592.205 434.454 593.152 434.838 593.424
C 437.727 588.088 440.116 582.281 442.684 576.764
C 443.683 574.616 444.404 571.616 445.964 569.844
C 448.281 569.608 450.818 569.503 453.148 569.6
C 453.959 569.633 455.617 569.757 454.728 570.946
C 453.465 571.246 452.088 571.201 450.924 571.817
C 450.296 574.145 450.593 576.828 450.611 579.221
C 450.646 583.566 450.643 587.912 450.633 592.258
C 450.629 594.097 450.021 597.804 451.37 599.255
C 452.543 599.572 455.244 599.444 455.272 600.8
C 451.905 601.356 448.067 600.779 444.645 600.829
C 443.601 600.845 441.343 601.394 441.266 600.059
C 442.309 599.052 443.854 599.619 445.077 598.973
C 445.819 597.182 445.749 595.107 445.765 593.201
C 445.791 589.969 445.754 586.736 445.733 583.504
C 445.72 581.586 445.715 579.667 445.869 577.755
C 445.886 577.541 446.167 575.901 445.852 575.856
C 445.673 575.83 445.501 576.412 445.434 576.551
C 442.24 582.654 439.246 588.894 436.313 595.129
C 435.613 596.617 434.946 598.134 434.209 599.603
C 433.954 600.111 433.914 601.148 433.148 600.928
C 431.805 599.579 431.358 597.455 430.585 595.77
C 428.751 591.77 426.951 587.758 425.095 583.767
C 424.209 581.861 423.243 579.962 422.416 578.034
C 422.207 577.547 421.695 575.693 421.231 576.361
C 421.596 581.96 421.302 587.621 421.305 593.232
C 421.305 594.703 420.788 598.142 421.75 599.278
C 422.85 599.412 425.962 599.354 425.804 600.805
C 423.037 600.858 420.273 600.785 417.505 600.849
C 416.237 600.879 414.884 601.475 414.858 599.911
C 415.987 599.476 417.38 599.347 418.582 599.136
C 419.602 596.81 419.142 593.272 419.141 590.789
C 419.139 587.088 419.144 583.387 419.16 579.686
C 419.171 577.319 419.334 574.59 418.692 572.293
C 417.74 571.101 413.892 571.429 414.251 569.747 Z"
opacity="1" fill="rgb(8,25,40)" fill-rule="evenodd" />
<path d="
M 426.899 533.837
C 428.413 533.534 430.433 533.585 431.769 532.758
C 433.144 531.907 434.13 530.334 434.928 528.97
C 436.721 525.908 438.192 522.645 439.583 519.383
C 444.095 508.807 448.75 498.296 453.235 487.71
C 454.999 483.549 456.766 479.377 458.455 475.185
C 459.097 473.593 459.526 471.123 461.528 471.244
C 463.967 474 464.79 478.498 466.358 481.807
C 471.382 492.415 475.775 503.375 480.423 514.152
C 482.052 517.928 483.626 521.729 485.3 525.485
C 486.322 527.779 487.511 530.396 489.483 532.037
C 491.25 533.508 493.24 533.387 495.199 534.291
C 495.21 534.742 495.264 535.148 495.041 535.553
C 493.223 535.928 490.787 535.583 488.904 535.586
C 484.272 535.594 479.638 535.637 475.006 535.67
C 473.167 535.684 469.569 536.583 469.163 534.345
C 469.564 533.462 472.907 533.372 473.962 533.168
C 478.656 529.973 473.565 522.306 472.009 518.416
C 471.48 517.095 471.258 515.089 470.26 514.054
C 462.659 513.648 454.456 513.549 446.867 514.154
C 444.764 517.858 443.188 522.408 441.735 526.424
C 441.225 527.834 440.311 529.971 441.067 531.441
C 442.238 533.715 445.799 533.764 448.007 533.818
C 448.045 534.468 448.075 535.216 447.876 535.838
C 442.653 535.36 437.247 535.616 432.008 535.711
C 431.061 535.729 427.66 536.291 426.988 535.561
C 426.673 535.219 426.874 534.176 426.899 533.837 Z
M 448.882 509.603
C 448.815 509.814 448.749 510.025 448.682 510.236
C 455.307 510.016 462.219 509.813 468.836 510.154
C 468.876 509.771 468.016 508.938 467.828 508.555
C 467.143 507.161 466.657 505.679 466.121 504.226
C 463.904 498.226 461.563 491.975 458.862 486.2
C 455.403 493.93 452.501 501.931 448.882 509.603 Z"
opacity="1" fill="rgb(15,35,58)" fill-rule="evenodd" />
<path d="
M 434.381 210.85
C 436.349 208.344 438.795 205.337 441.595 203.728
C 441.065 205.755 440.949 207.942 441.219 210.019
C 440.744 208.865 440.142 211.606 440.034 211.955
C 439.278 214.389 438.652 216.847 438.207 219.36
C 437.041 225.94 437.523 232.927 438.884 239.444
C 440.588 247.603 444.613 255.241 451.076 260.644
C 453.334 262.532 455.82 263.941 458.314 265.477
C 459.173 266.007 459.986 266.296 460.963 266.534
C 461.405 266.642 462.635 266.647 462.272 266.923
C 461.792 267.288 460.635 267.033 460.089 267
C 458.575 266.91 457.028 267.165 455.5 267.205
C 441.389 260.034 432.176 243.921 431.795 228.131
C 431.699 224.173 431.966 219.922 432.985 216.083
C 433.294 214.917 434.867 211.954 434.381 210.85 Z"
opacity="1" fill="rgb(147,146,145)" fill-rule="evenodd" />
<path d="
M 441.595 203.728
C 444.449 199.357 449.276 196.004 452.855 192.355
C 453.631 191.564 454.52 191.124 455.342 190.442
C 455.477 190.33 456.424 189.283 456.473 189.338
C 456.592 189.469 455.572 190.434 455.46 190.56
C 454.244 191.932 452.636 193.232 451.772 194.863
C 450.845 196.523 451.192 198.922 451.329 200.756
C 451.666 205.245 452.399 209.65 453.265 214.063
C 455.865 227.304 461.215 240.759 468.774 251.959
C 471.141 255.467 473.537 259.049 476.309 262.256
C 477.687 263.85 479.932 265.582 480.961 267.369
C 480.485 267.729 478.362 267.355 477.708 267.386
C 475.257 267.5 472.781 267.45 470.327 267.463
C 469.219 267.469 467.916 267.74 466.841 267.482
C 465.134 266.207 463.924 264.251 462.675 262.548
C 460.301 259.311 458.099 255.946 456.179 252.418
C 448.962 239.153 443.031 225.142 441.219 210.019
C 440.949 207.942 441.065 205.755 441.595 203.728 Z"
opacity="1" fill="rgb(12,52,87)" fill-rule="evenodd" />
<path d="
M 459.827 185.523
C 461.009 183.451 463.602 181.861 465.299 180.177
C 469.536 175.968 473.79 171.75 478.213 167.737
C 478.62 168.244 478.003 170.137 477.935 170.746
C 477.601 173.709 477.5 176.721 477.43 179.701
C 477.2 189.38 478.345 199.614 481.084 208.92
C 486.039 225.754 493.484 241.261 505.184 254.495
C 508.25 257.963 511.627 261.126 515.135 264.145
C 516.48 265.302 518.443 266.197 519.598 267.479
C 518.868 267.764 518.246 267.468 517.505 267.447
C 515.562 267.392 513.578 267.577 511.621 267.576
C 507.57 267.574 503.519 267.583 499.467 267.589
C 497.468 267.593 495.249 267.898 493.288 267.579
C 491.269 266.015 489.668 263.556 488.082 261.562
C 485.261 258.016 482.627 254.459 480.189 250.636
C 471.261 236.63 465.35 220.861 462.031 204.64
C 461.144 200.305 460.526 195.918 460.159 191.508
C 459.996 189.542 459.617 187.492 459.827 185.523 Z"
opacity="1" fill="rgb(13,53,90)" fill-rule="evenodd" />
<path d="
M 461.259 569.759
C 463.66 569.235 466.538 569.714 469.005 569.74
C 474.476 569.795 480.065 570.009 485.527 569.751
C 485.812 571.504 485.868 573.378 486.069 575.157
C 486.136 575.752 486.371 576.499 485.983 577.005
C 484.56 576.649 483.427 573.351 482.848 572.112
C 481.911 571.653 480.548 571.843 479.514 571.802
C 476.627 571.686 473.748 571.716 470.865 571.84
C 470.76 574.572 470.734 577.299 470.696 580.034
C 470.683 581.026 470.346 582.662 470.896 583.486
C 473.482 583.466 476.099 583.488 478.683 583.344
C 479.249 583.313 480.739 583.656 481.154 583.348
C 481.497 581.84 481.851 579.575 483.217 578.681
C 483.675 578.916 483.375 580.567 483.36 581.102
C 483.299 583.355 483.312 585.616 483.34 587.869
C 483.351 588.665 483.679 590.008 482.545 589.883
C 481.887 588.619 481.691 586.928 481.36 585.541
C 480.763 585.076 479.454 585.327 478.729 585.319
C 476.132 585.29 473.425 585.121 470.847 585.434
C 470.462 587.003 470.702 588.885 470.711 590.499
C 470.724 593.051 470.388 595.982 470.965 598.476
C 474.418 598.681 480.123 599.453 483.292 597.809
C 485.265 596.785 486.096 592.793 488.335 592.778
C 488.45 593.564 487.901 594.274 487.564 594.939
C 486.71 596.624 486.51 598.979 485.412 600.479
C 483.49 601.123 480.556 600.62 478.532 600.533
C 474.474 600.358 470.182 600.338 466.133 600.633
C 464.663 600.741 460.517 601.618 461.364 599.347
C 462.751 599.261 464.12 599.167 465.499 599
C 466.583 594.788 465.749 589.492 465.792 585.156
C 465.833 581.015 466.719 575.922 465.684 571.887
C 464.405 571.269 461.231 571.283 461.259 569.759 Z"
opacity="1" fill="rgb(12,28,41)" fill-rule="evenodd" />
<path d="
M 492.357 569.85
C 494.294 569.31 496.514 569.778 498.507 569.766
C 499.316 569.761 500.231 569.592 500.97 569.944
C 502.651 572.42 504.988 574.61 506.96 576.864
C 509.33 579.572 511.507 582.436 513.906 585.125
C 515.755 587.197 518.261 589.405 519.611 591.831
C 519.78 591.805 519.705 590.904 519.703 590.838
C 519.668 589.558 519.682 588.277 519.689 586.994
C 519.717 582.005 520.323 576.607 519.426 571.698
C 518.148 570.942 515.34 571.345 515.213 569.789
C 517.682 569.329 520.691 569.639 523.214 569.692
C 524.158 569.713 525.62 569.558 526.405 570.106
C 526.38 571.201 523.267 571.375 522.292 571.873
C 521.49 577.901 521.571 584.576 521.875 590.644
C 522.052 594.198 522.683 598.189 522.194 601.712
C 521.814 601.934 521.289 601.249 521.041 600.949
C 520.044 599.74 519.108 598.487 518.075 597.307
C 513.881 592.516 509.775 587.656 505.593 582.855
C 504.452 581.544 503.388 580.172 502.226 578.881
C 501.989 578.618 501.137 577.597 501.098 577.619
C 500.698 577.848 501.097 578.541 501.095 579.002
C 501.091 580.203 501.105 581.382 501.005 582.582
C 500.699 586.245 500.816 590.028 500.815 593.704
C 500.814 595.305 500.57 597.474 501.433 598.878
C 502.542 599.309 505.498 599.372 505.304 600.793
C 502.534 600.717 499.781 600.762 497.014 600.804
C 495.719 600.824 494.313 601.262 494.049 599.762
C 495.056 599.5 497.499 599.422 498.028 598.343
C 498.909 596.549 498.537 593.716 498.566 591.767
C 498.63 587.503 498.602 583.255 498.437 578.996
C 498.375 577.384 498.756 575.55 498.194 574.004
C 497.542 572.21 495.867 571.892 494.282 571.246
C 493.234 570.819 492.475 571.136 492.357 569.85 Z"
opacity="1" fill="rgb(11,27,45)" fill-rule="evenodd" />
<path d="
M 504.167 473.107
C 509.739 473.44 515.853 472.184 521.336 473.156
C 525.179 479.559 531.023 484.986 535.743 490.739
C 541.092 497.259 546.607 503.644 552.131 510.016
C 554.487 512.733 556.517 515.849 559.03 518.412
C 559.384 518.016 558.921 516.535 558.951 516.002
C 559.078 513.675 559.066 511.349 559.061 509.014
C 559.046 502.57 559.118 496.128 559.132 489.684
C 559.139 486.325 559.616 482.453 558.706 479.184
C 558.079 476.93 556.566 475.401 554.215 475.228
C 553.558 475.18 550.704 475.425 550.376 474.729
C 550.167 474.284 550.615 473.462 550.781 473.127
C 553.673 472.963 556.604 473.237 559.504 473.22
C 563.902 473.194 568.363 472.92 572.751 473.235
C 572.895 473.773 572.929 474.15 572.849 474.701
C 570.177 475.967 567.395 474.426 565.265 477.311
C 563.76 479.35 563.854 481.78 563.836 484.196
C 563.81 487.63 563.792 491.064 563.81 494.498
C 563.858 503.667 563.761 512.834 563.769 522.003
C 563.773 526.856 564.148 531.879 563.793 536.712
C 561.978 536.935 561.125 535.369 560.134 534.111
C 557.861 531.225 555.43 528.461 553.087 525.633
C 545.215 516.133 537.314 506.608 529.072 497.425
C 527.028 495.148 525.012 492.799 523.177 490.349
C 522.599 489.576 521.876 488.104 520.899 487.943
C 520.522 497.893 520.891 507.901 520.894 517.858
C 520.895 520.797 520.814 523.748 520.94 526.685
C 520.996 528.016 520.971 529.666 521.619 530.871
C 523.362 534.116 526.905 533.782 530.096 533.753
C 530.166 534.409 530.287 535.053 530.177 535.708
C 527.661 536.117 524.836 535.695 522.298 535.626
C 518.871 535.533 515.438 535.71 512.012 535.745
C 510.494 535.76 505.72 536.536 507.298 533.736
C 510.913 533.857 514.754 533.844 516.056 529.758
C 517.104 526.467 516.343 521.931 516.342 518.502
C 516.339 510.504 516.281 502.505 516.27 494.507
C 516.267 491.728 516.24 488.95 516.279 486.171
C 516.297 484.898 516.556 483.247 516.03 482.05
C 514.11 477.676 508.845 475.579 504.478 475.384
C 503.894 474.822 504.155 473.864 504.167 473.107 Z"
opacity="1" fill="rgb(14,35,59)" fill-rule="evenodd" />
<path d="
M 532.373 569.772
C 534.675 569.383 537.171 569.753 539.505 569.738
C 545.873 569.696 552.309 570.02 558.667 569.74
C 558.954 571.541 559.465 575.264 558.892 576.976
C 557.617 577.03 556.823 573.193 555.91 572.16
C 554.009 571.727 552 571.871 550.064 571.888
C 549.421 571.894 548.693 571.755 548.154 572.159
C 547.513 578.056 548.079 584.33 548.003 590.275
C 547.97 592.895 547.474 596.471 548.625 598.891
C 549.682 599.757 553.087 599.258 552.796 600.802
C 549.216 600.895 545.603 600.783 542.012 600.839
C 540.835 600.857 538.98 601.451 538.779 600
C 539.572 598.967 541.732 599.364 542.939 598.895
C 543.907 596.751 543.289 593.308 543.293 591.004
C 543.307 584.709 542.99 578.316 543.339 572.04
C 542.987 571.615 541.583 571.866 541.01 571.875
C 539.162 571.904 535.865 571.348 534.651 573.117
C 533.981 574.095 534.371 576.888 533.46 577.389
C 533.152 577.387 532.825 577.554 532.539 577.441
C 532.036 577.241 532.252 576.044 532.271 575.65
C 532.368 573.7 532.469 571.724 532.373 569.772 Z"
opacity="1" fill="rgb(8,27,41)" fill-rule="evenodd" />
<path d="
M 580.702 599.778
C 582.692 599.092 584.872 599.913 586.325 597.832
C 587.688 595.879 586.877 591.703 586.889 589.424
C 586.918 584.116 586.918 578.809 586.928 573.5
C 586.933 570.779 587.339 567.744 586.751 565.07
C 586.094 562.087 583.416 563.871 581.964 562.46
C 581.348 561.862 581.495 561.815 581.644 561.178
C 585.764 561.3 589.886 561.333 594.007 561.241
C 595.362 561.211 598.302 560.766 599.419 561.483
C 599.382 563.107 597.893 562.718 596.545 562.806
C 595.219 562.893 593.931 563.534 593.434 564.863
C 592.616 567.053 593.129 570.265 593.124 572.574
C 593.112 577.882 593.131 583.19 593.143 588.497
C 593.148 591.16 592.468 595.056 593.374 597.548
C 594.619 598.152 596.273 598.098 597.632 598.141
C 601.261 598.254 606.526 598.745 609.671 596.566
C 612.152 594.847 612.958 592.218 614.316 589.703
C 614.59 589.711 615.33 589.685 615.559 589.899
C 615.974 590.288 615.015 592.247 614.863 592.678
C 613.982 595.175 613.811 598.71 612.324 600.887
C 604.33 601.461 596.028 600.728 587.999 600.749
C 586.213 600.754 581.172 601.843 580.702 599.778 Z"
opacity="1" fill="rgb(14,31,49)" fill-rule="evenodd" />
<path d="
M 587.322 471.032
C 588.876 466.577 594.447 465.645 597.993 468.325
C 600.709 470.377 601.936 473.984 601.607 477.309
C 601.106 482.376 598.51 486.679 594.472 489.747
C 593.192 490.72 591.424 491.76 589.859 492.16
C 588.743 492.445 587.818 492.01 588.169 490.72
C 591.915 488.221 595.274 486.284 596.447 481.579
C 596.783 480.234 597.016 478.012 596.113 476.82
C 594.435 477.419 592.759 478.143 590.93 477.954
C 587.732 477.623 586.785 473.612 587.322 471.032 Z"
opacity="1" fill="rgb(15,32,52)" fill-rule="evenodd" />
<path d="
M 616.49 487.615
C 616.664 485.623 616.961 483.558 617.77 481.713
C 621.331 473.599 630.34 470.706 638.628 472.049
C 642.334 472.65 646.254 475.893 649.987 475.272
C 651.191 474.529 651.654 473.111 651.911 471.785
C 652.637 471.841 653.434 471.923 654.005 472.405
C 653.297 479.483 654.179 486.699 653.884 493.791
C 653.281 493.947 652.716 493.923 652.098 493.912
C 651.407 492.614 651.412 491.087 651.049 489.689
C 650.223 486.507 649.242 483.425 647.031 480.904
C 641.312 474.38 626.892 472.634 625.033 483.602
C 624.032 489.509 630.151 493.406 634.374 496.142
C 643.682 502.175 659.992 508.145 658.222 521.948
C 658.016 523.549 657.457 525.077 656.754 526.521
C 652.882 534.469 642.705 538.015 634.354 537.002
C 631.366 536.639 628.588 535.606 625.777 534.586
C 624.383 534.08 622.43 533.256 620.975 533.974
C 619.67 534.618 619.524 536.275 618.737 537.336
C 618.21 537.436 617.767 537.514 617.305 537.21
C 616.68 534.973 616.946 531.984 616.913 529.646
C 616.846 524.868 616.893 520.035 616.389 515.282
C 617.267 515.096 617.986 514.971 618.829 515.321
C 619.982 522.217 622.52 528.204 629.094 531.514
C 635.244 534.61 646.383 533.82 648.593 525.873
C 650.46 519.157 644.707 514.493 639.606 511.42
C 630.663 506.033 616.03 500.151 616.49 487.615 Z"
opacity="1" fill="rgb(16,34,56)" fill-rule="evenodd" />
<path d="
M 620.945 570.031
C 621.06 569.82 621.175 569.61 621.29 569.399
C 625.079 569.2 628.998 569.468 632.808 569.435
C 634.046 569.424 636.071 569.055 635.81 570.803
C 634.35 570.673 632.687 570.652 631.411 571.439
C 630.36 573.797 630.858 576.979 630.852 579.5
C 630.841 583.499 630.85 587.497 630.826 591.496
C 630.813 593.695 630.494 596.181 631.08 598.319
C 634.82 598.477 640.246 599.259 643.68 597.493
C 645.265 596.678 646.479 594.964 647.214 593.382
C 647.639 592.466 647.915 591.293 649.097 591.395
C 649.414 592.272 648.744 593.22 648.461 594.024
C 647.664 596.29 647.125 598.652 646.263 600.888
C 639.882 601.187 633.406 600.435 627.007 600.694
C 625.467 600.756 621.357 601.775 621.251 599.826
C 622.644 599.473 624.197 599.679 625.544 599.082
C 626.421 597.517 625.951 594.881 625.997 593.129
C 626.127 588.181 625.905 583.237 625.961 578.285
C 625.984 576.284 626.421 573.336 625.385 571.553
C 624.53 570.803 620.731 571.077 620.945 570.031 Z"
opacity="1" fill="rgb(16,33,48)" fill-rule="evenodd" />
<path d="
M 654.977 581.118
C 655.356 578.114 655.685 575.349 656.896 572.527
C 659.874 565.588 666.762 560.764 674.364 560.615
C 676.619 560.57 678.817 560.912 680.967 561.588
C 682.458 562.057 683.887 562.98 685.483 563.009
C 686.747 562.29 687.159 560.47 688.579 560.076
C 689.457 560.715 689.234 562.486 689.261 563.506
C 689.318 565.606 689.324 567.727 689.61 569.811
C 689.786 571.099 690.205 572.736 689.953 574.024
C 689.87 574.443 688.997 574.276 688.702 574.284
C 687.094 571.293 686.951 568.08 684.136 565.708
C 678.105 560.628 669.435 562.662 665.409 568.996
C 659.376 578.485 661.357 598.18 675.235 599.028
C 677.54 599.169 679.918 598.723 682.015 597.746
C 685.195 596.265 686.793 593.83 688.952 591.269
C 690.607 591.047 690.418 592.018 689.738 593.086
C 688.791 594.575 687.575 595.946 686.287 597.149
C 683.109 600.117 678.482 601.819 674.132 601.663
C 662.863 601.257 654.376 592.608 654.977 581.118 Z"
opacity="1" fill="rgb(16,29,46)" fill-rule="evenodd" />

</svg>